<svg xmlns="http://www.w3.org/2000/svg" xmlns:xlink="http://www.w3.org/1999/xlink" width="880" height="537.62"><rect width="880" height="537.62" rx="5" ry="5" class="a"/><svg y="0%" x="0%"><circle cx="20" cy="20" r="6" fill="#ff5f58"/><circle cx="40" cy="20" r="6" fill="#ffbd2e"/><circle cx="60" cy="20" r="6" fill="#18c132"/></svg><svg height="477.62" viewBox="0 0 84 47.762" width="840" x="15" xmlns="http://www.w3.org/2000/svg" xmlns:xlink="http://www.w3.org/1999/xlink" y="50"><style>@keyframes aC{0%{transform:translateX(0)}1.3%{transform:translateX(-84px)}1.7%{transform:translateX(-252px)}11.6%{transform:translateX(-336px)}13%{transform:translateX(-420px)}14.1%{transform:translateX(-504px)}15%{transform:translateX(-588px)}16.1%{transform:translateX(-672px)}17.7%{transform:translateX(-756px)}19.1%{transform:translateX(-840px)}20.2%{transform:translateX(-924px)}21.5%{transform:translateX(-1008px)}23.4%{transform:translateX(-1092px)}24.3%{transform:translateX(-1176px)}25.8%{transform:translateX(-1260px)}26.8%{transform:translateX(-1344px)}28%{transform:translateX(-1428px)}28.5%{transform:translateX(-1512px)}32%{transform:translateX(-1596px)}34%{transform:translateX(-1680px)}35.3%{transform:translateX(-1764px)}36.5%{transform:translateX(-1848px)}38.6%{transform:translateX(-1932px)}39.9%{transform:translateX(-2016px)}41.8%{transform:translateX(-2100px)}43.2%{transform:translateX(-2268px)}67.3%{transform:translateX(-2352px)}70.4%{transform:translateX(-2520px)}71.1%{transform:translateX(-2604px)}71.8%{transform:translateX(-2772px)}72.1%{transform:translateX(-2940px)}72.2%{transform:translateX(-3024px)}73.6%{transform:translateX(-3276px)}73.9%{transform:translateX(-3444px)}74.5%{transform:translateX(-3612px)}to{transform:translateX(-3696px)}}.a{fill:#282d35}.f,.g,.h,.i,.j{fill:#a8cc8c;font-weight:700;white-space:pre}.g,.h,.i,.j{fill:#66c2cd}.h,.i,.j{fill:#71bef2}.i,.j{fill:#e88388}.j{fill:#dbab79}.k,.l,.m,.n{fill:#b9c0cb;white-space:pre}.l,.m,.n{fill:#545dd7}.m,.n{fill:#545cd6}.n{fill:#555cd5}.o,.p,.q,.r,.s,.t{fill:#555bd4;white-space:pre}.p,.q,.r,.s,.t{fill:#555ad3}.q,.r,.s,.t{fill:#555ad2}.r,.s,.t{fill:#5659d1}.s,.t{fill:#5658d0}.t{fill:#5658cf}.u,.v,.w,.x,.y,.z{fill:#5657ce;white-space:pre}.v,.w,.x,.y,.z{fill:#5757cd}.w,.x,.y,.z{fill:#5756cd}.x,.y,.z{fill:#5755cc}.y,.z{fill:#5855cb}.z{fill:#5854ca}.A,.B,.C,.D,.E,.F{fill:#5853c9;white-space:pre}.B,.C,.D,.E,.F{fill:#5853c8}.C,.D,.E,.F{fill:#5952c7}.D,.E,.F{fill:#5951c6}.E,.F{fill:#5951c5}.F{fill:#5a50c4}.G,.H,.I,.J,.K,.L{fill:#5a4fc3;white-space:pre}.H,.I,.J,.K,.L{fill:#5a4fc2}.I,.J,.K,.L{fill:#5a4ec1}.J,.K,.L{fill:#5b4dc0}.K,.L{fill:#5b4dbf}.L{fill:#5b4cbe}.M,.N,.O,.P,.Q,.R{fill:#5b4cbd;white-space:pre}.N,.O,.P,.Q,.R{fill:#5c4bbc}.O,.P,.Q,.R{fill:#5c4abb}.P,.Q,.R{fill:#5c4aba}.Q,.R{fill:#5d49b9}.R{fill:#5d48b8}.S,.T,.U,.V,.W,.X{fill:#5d47b7;white-space:pre}.T,.U,.V,.W,.X{fill:#5e46b6}.U,.V,.W,.X{fill:#5e46b5}.V,.W,.X{fill:#5e45b4}.W,.X{fill:#5f44b3}.X{fill:#5f44b2}.ab,.am,.ax,.az{fill:#6041ae;white-space:pre}.am,.ax,.az{fill:#633aa3}.ax,.az{fill:#639}.az{fill:#46d46a}</style><g font-family="Monaco,Consolas,Menlo,'Bitstream Vera Sans Mono','Powerline Symbols',monospace" font-size="1.67"><defs><symbol id="1"><text y="1.67" class="f">➜</text><text x="3.006" y="1.67" class="g">babel</text><text x="9.018" y="1.67" class="h">git:(</text><text x="14.028" y="1.67" class="i">next</text><text x="18.036" y="1.67" class="h">)</text><text x="20.04" y="1.67" class="j">✗</text></symbol><symbol id="2"><text y="1.67" class="f">➜</text><text x="3.006" y="1.67" class="g">babel</text><text x="9.018" y="1.67" class="h">git:(</text><text x="14.028" y="1.67" class="i">next</text><text x="18.036" y="1.67" class="h">)</text><text x="20.04" y="1.67" class="j">✗</text><text x="22.044" y="1.67" class="k">yarn</text></symbol><symbol id="3"><text y="1.67" class="f">➜</text><text x="3.006" y="1.67" class="g">babel</text><text x="9.018" y="1.67" class="h">git:(</text><text x="14.028" y="1.67" class="i">next</text><text x="18.036" y="1.67" class="h">)</text><text x="20.04" y="1.67" class="j">✗</text><text x="22.044" y="1.67" class="k">yarn</text><text x="27.054" y="1.67" class="k">bud</text></symbol><symbol id="4"><text y="1.67" class="f">➜</text><text x="3.006" y="1.67" class="g">babel</text><text x="9.018" y="1.67" class="h">git:(</text><text x="14.028" y="1.67" class="i">next</text><text x="18.036" y="1.67" class="h">)</text><text x="20.04" y="1.67" class="j">✗</text><text x="22.044" y="1.67" class="k">yarn</text><text x="27.054" y="1.67" class="k">bud</text><text x="31.062" y="1.67" class="k">build</text></symbol><symbol id="5"><text y="1.67" class="f">➜</text><text x="3.006" y="1.67" class="g">babel</text><text x="9.018" y="1.67" class="h">git:(</text><text x="14.028" y="1.67" class="i">next</text><text x="18.036" y="1.67" class="h">)</text><text x="20.04" y="1.67" class="j">✗</text><text x="22.044" y="1.67" class="k">yarn</text><text x="27.054" y="1.67" class="k">bud</text><text x="31.062" y="1.67" class="k">build</text><text x="37.074" y="1.67" class="k">--cache</text></symbol><symbol id="6"><text y="1.67" class="l">▉</text><text x="1.002" y="1.67" class="m">▉</text><text x="2.004" y="1.67" class="n">▉</text><text x="3.006" y="1.67" class="o">▉</text><text x="4.008" y="1.67" class="p">▉</text><text x="5.01" y="1.67" class="q">▉</text><text x="6.012" y="1.67" class="r">▉</text><text x="7.014" y="1.67" class="s">▉</text><text x="8.016" y="1.67" class="t">▉</text><text x="9.018" y="1.67" class="u">▉</text><text x="10.02" y="1.67" class="v">▉</text><text x="11.022" y="1.67" class="w">▉</text><text x="12.024" y="1.67" class="x">▉</text><text x="13.026" y="1.67" class="y">▉</text><text x="14.028" y="1.67" class="z">▉</text><text x="15.03" y="1.67" class="A">▉</text><text x="16.032" y="1.67" class="B">▉</text><text x="17.034" y="1.67" class="C">▉</text><text x="18.036" y="1.67" class="D">▉</text><text x="19.038" y="1.67" class="E">▉</text><text x="20.04" y="1.67" class="F">▉</text><text x="21.042" y="1.67" class="G">▉</text><text x="22.044" y="1.67" class="H">▉</text><text x="23.046" y="1.67" class="I">▉</text><text x="24.048" y="1.67" class="J">▉</text><text x="25.05" y="1.67" class="K">▉</text><text x="26.052" y="1.67" class="L">▉</text><text x="27.054" y="1.67" class="M">▉</text><text x="28.056" y="1.67" class="N">▉</text><text x="29.058" y="1.67" class="O">▉</text><text x="30.06" y="1.67" class="P">▉</text><text x="31.062" y="1.67" class="Q">▉</text><text x="32.064" y="1.67" class="R">▉▉</text><text x="34.068" y="1.67" class="S">▉</text><text x="35.07" y="1.67" class="T">▉</text><text x="36.072" y="1.67" class="U">▉</text><text x="37.074" y="1.67" class="V">▉</text><text x="38.076" y="1.67" class="W">▉</text><text x="39.078" y="1.67" class="X">▉</text><text x="40.08" y="1.67" style="white-space:pre" fill="#5f43b1">▉</text><text x="41.082" y="1.67" style="white-space:pre" fill="#5f43b0">▉</text><text x="42.084" y="1.67" style="white-space:pre" fill="#6042af">▉</text><text x="43.086" y="1.67" class="ab">▉</text><text x="44.088" y="1.67" style="white-space:pre" fill="#6041ad">▉</text><text x="45.09" y="1.67" style="white-space:pre" fill="#6040ac">▉</text><text x="46.092" y="1.67" style="white-space:pre" fill="#613fab">▉</text><text x="47.094" y="1.67" style="white-space:pre" fill="#613faa">▉</text><text x="48.096" y="1.67" style="white-space:pre" fill="#613ea9">▉</text><text x="49.098" y="1.67" style="white-space:pre" fill="#623da8">▉</text><text x="50.1" y="1.67" style="white-space:pre" fill="#623da7">▉</text><text x="51.102" y="1.67" style="white-space:pre" fill="#623ca6">▉</text><text x="52.104" y="1.67" style="white-space:pre" fill="#623ba5">▉</text><text x="53.106" y="1.67" style="white-space:pre" fill="#633ba4">▉</text><text x="54.108" y="1.67" class="am">▉</text><text x="55.11" y="1.67" style="white-space:pre" fill="#6339a3">▉</text><text x="56.112" y="1.67" style="white-space:pre" fill="#6439a2">▉</text><text x="57.114" y="1.67" style="white-space:pre" fill="#6438a1">▉</text><text x="58.116" y="1.67" style="white-space:pre" fill="#6438a0">▉</text><text x="59.118" y="1.67" style="white-space:pre" fill="#64379f">▉</text><text x="60.12" y="1.67" style="white-space:pre" fill="#65369e">▉</text><text x="61.122" y="1.67" style="white-space:pre" fill="#65369d">▉</text><text x="62.124" y="1.67" style="white-space:pre" fill="#65359c">▉</text><text x="63.126" y="1.67" style="white-space:pre" fill="#65349b">▉</text><text x="64.128" y="1.67" style="white-space:pre" fill="#66349a">▉</text><text x="65.13" y="1.67" class="ax">▉</text><text x="66.132" y="1.67" class="k">▉▉▉▉</text></symbol><symbol id="7"><path fill="#545dd7" d="M0 0h5v2.171H0z"/><text y="1.67" class="k">bud</text></symbol><symbol id="8"><text x="1.002" y="1.67" class="k">-</text><text x="3.006" y="1.67" class="k">app.js</text><text x="26.052" y="1.67" class="az">minimized</text><text x="52.104" y="1.67" class="k">699</text><text x="56.112" y="1.67" class="k">bytes</text></symbol><symbol id="9"><text x="1.002" y="1.67" class="k">-</text><text x="3.006" y="1.67" class="k">app.css</text><text x="26.052" y="1.67" class="az">minimized</text><text x="52.104" y="1.67" class="k">248</text><text x="56.112" y="1.67" class="k">bytes</text></symbol><symbol id="10"><text y="1.67" class="k">Compiled</text><text x="9.018" y="1.67" class="k">in</text><text x="12.024" y="1.67" class="k">99ms</text></symbol><symbol id="a"><path fill="transparent" d="M0 0h84v22H0z"/></symbol><symbol id="b"><path fill="#6f7683" d="M0 0h1.102v2.171H0z"/></symbol></defs><path class="a" d="M0 0h84v47.762H0z"/><g style="animation-duration:6.685779s;animation-iteration-count:infinite;animation-name:aC;animation-timing-function:steps(1,end)"><svg width="3780"><svg><use xlink:href="#a"/><use xlink:href="#b" x="-.004"/></svg><svg x="84"><use xlink:href="#a"/><use xlink:href="#b" x="-.004"/></svg><svg x="168"><use xlink:href="#a"/><use xlink:href="#b" x="21.996"/><use xlink:href="#1"/></svg><svg x="252"><use xlink:href="#a"/><use xlink:href="#b" x="21.996"/><use xlink:href="#1"/></svg><svg x="336"><use xlink:href="#a"/><use xlink:href="#b" x="22.996"/><text y="1.67" class="f">➜</text><text x="3.006" y="1.67" class="g">babel</text><text x="9.018" y="1.67" class="h">git:(</text><text x="14.028" y="1.67" class="i">next</text><text x="18.036" y="1.67" class="h">)</text><text x="20.04" y="1.67" class="j">✗</text><text x="22.044" y="1.67" class="k">y</text></svg><svg x="420"><use xlink:href="#a"/><use xlink:href="#b" x="23.996"/><text y="1.67" class="f">➜</text><text x="3.006" y="1.67" class="g">babel</text><text x="9.018" y="1.67" class="h">git:(</text><text x="14.028" y="1.67" class="i">next</text><text x="18.036" y="1.67" class="h">)</text><text x="20.04" y="1.67" class="j">✗</text><text x="22.044" y="1.67" class="k">ya</text></svg><svg x="504"><use xlink:href="#a"/><use xlink:href="#b" x="24.996"/><text y="1.67" class="f">➜</text><text x="3.006" y="1.67" class="g">babel</text><text x="9.018" y="1.67" class="h">git:(</text><text x="14.028" y="1.67" class="i">next</text><text x="18.036" y="1.67" class="h">)</text><text x="20.04" y="1.67" class="j">✗</text><text x="22.044" y="1.67" class="k">yar</text></svg><svg x="588"><use xlink:href="#a"/><use xlink:href="#b" x="25.996"/><use xlink:href="#2"/></svg><svg x="672"><use xlink:href="#a"/><use xlink:href="#b" x="26.996"/><use xlink:href="#2"/></svg><svg x="756"><use xlink:href="#a"/><use xlink:href="#b" x="27.996"/><text y="1.67" class="f">➜</text><text x="3.006" y="1.67" class="g">babel</text><text x="9.018" y="1.67" class="h">git:(</text><text x="14.028" y="1.67" class="i">next</text><text x="18.036" y="1.67" class="h">)</text><text x="20.04" y="1.67" class="j">✗</text><text x="22.044" y="1.67" class="k">yarn</text><text x="27.054" y="1.67" class="k">b</text></svg><svg x="840"><use xlink:href="#a"/><use xlink:href="#b" x="28.996"/><text y="1.67" class="f">➜</text><text x="3.006" y="1.67" class="g">babel</text><text x="9.018" y="1.67" class="h">git:(</text><text x="14.028" y="1.67" class="i">next</text><text x="18.036" y="1.67" class="h">)</text><text x="20.04" y="1.67" class="j">✗</text><text x="22.044" y="1.67" class="k">yarn</text><text x="27.054" y="1.67" class="k">bu</text></svg><svg x="924"><use xlink:href="#a"/><use xlink:href="#b" x="29.996"/><use xlink:href="#3"/></svg><svg x="1008"><use xlink:href="#a"/><use xlink:href="#b" x="30.996"/><use xlink:href="#3"/></svg><svg x="1092"><use xlink:href="#a"/><use xlink:href="#b" x="31.996"/><text y="1.67" class="f">➜</text><text x="3.006" y="1.67" class="g">babel</text><text x="9.018" y="1.67" class="h">git:(</text><text x="14.028" y="1.67" class="i">next</text><text x="18.036" y="1.67" class="h">)</text><text x="20.04" y="1.67" class="j">✗</text><text x="22.044" y="1.67" class="k">yarn</text><text x="27.054" y="1.67" class="k">bud</text><text x="31.062" y="1.67" class="k">b</text></svg><svg x="1176"><use xlink:href="#a"/><use xlink:href="#b" x="32.996"/><text y="1.67" class="f">➜</text><text x="3.006" y="1.67" class="g">babel</text><text x="9.018" y="1.67" class="h">git:(</text><text x="14.028" y="1.67" class="i">next</text><text x="18.036" y="1.67" class="h">)</text><text x="20.04" y="1.67" class="j">✗</text><text x="22.044" y="1.67" class="k">yarn</text><text x="27.054" y="1.67" class="k">bud</text><text x="31.062" y="1.67" class="k">bu</text></svg><svg x="1260"><use xlink:href="#a"/><use xlink:href="#b" x="33.996"/><text y="1.67" class="f">➜</text><text x="3.006" y="1.67" class="g">babel</text><text x="9.018" y="1.67" class="h">git:(</text><text x="14.028" y="1.67" class="i">next</text><text x="18.036" y="1.67" class="h">)</text><text x="20.04" y="1.67" class="j">✗</text><text x="22.044" y="1.67" class="k">yarn</text><text x="27.054" y="1.67" class="k">bud</text><text x="31.062" y="1.67" class="k">bui</text></svg><svg x="1344"><use xlink:href="#a"/><use xlink:href="#b" x="34.996"/><text y="1.67" class="f">➜</text><text x="3.006" y="1.67" class="g">babel</text><text x="9.018" y="1.67" class="h">git:(</text><text x="14.028" y="1.67" class="i">next</text><text x="18.036" y="1.67" class="h">)</text><text x="20.04" y="1.67" class="j">✗</text><text x="22.044" y="1.67" class="k">yarn</text><text x="27.054" y="1.67" class="k">bud</text><text x="31.062" y="1.67" class="k">buil</text></svg><svg x="1428"><use xlink:href="#a"/><use xlink:href="#b" x="35.996"/><use xlink:href="#4"/></svg><svg x="1512"><use xlink:href="#a"/><use xlink:href="#b" x="36.996"/><use xlink:href="#4"/></svg><svg x="1596"><use xlink:href="#a"/><use xlink:href="#b" x="37.996"/><text y="1.67" class="f">➜</text><text x="3.006" y="1.67" class="g">babel</text><text x="9.018" y="1.67" class="h">git:(</text><text x="14.028" y="1.67" class="i">next</text><text x="18.036" y="1.67" class="h">)</text><text x="20.04" y="1.67" class="j">✗</text><text x="22.044" y="1.67" class="k">yarn</text><text x="27.054" y="1.67" class="k">bud</text><text x="31.062" y="1.67" class="k">build</text><text x="37.074" y="1.67" class="k">-</text></svg><svg x="1680"><use xlink:href="#a"/><use xlink:href="#b" x="38.996"/><text y="1.67" class="f">➜</text><text x="3.006" y="1.67" class="g">babel</text><text x="9.018" y="1.67" class="h">git:(</text><text x="14.028" y="1.67" class="i">next</text><text x="18.036" y="1.67" class="h">)</text><text x="20.04" y="1.67" class="j">✗</text><text x="22.044" y="1.67" class="k">yarn</text><text x="27.054" y="1.67" class="k">bud</text><text x="31.062" y="1.67" class="k">build</text><text x="37.074" y="1.67" class="k">--</text></svg><svg x="1764"><use xlink:href="#a"/><use xlink:href="#b" x="39.996"/><text y="1.67" class="f">➜</text><text x="3.006" y="1.67" class="g">babel</text><text x="9.018" y="1.67" class="h">git:(</text><text x="14.028" y="1.67" class="i">next</text><text x="18.036" y="1.67" class="h">)</text><text x="20.04" y="1.67" class="j">✗</text><text x="22.044" y="1.67" class="k">yarn</text><text x="27.054" y="1.67" class="k">bud</text><text x="31.062" y="1.67" class="k">build</text><text x="37.074" y="1.67" class="k">--c</text></svg><svg x="1848"><use xlink:href="#a"/><use xlink:href="#b" x="40.996"/><text y="1.67" class="f">➜</text><text x="3.006" y="1.67" class="g">babel</text><text x="9.018" y="1.67" class="h">git:(</text><text x="14.028" y="1.67" class="i">next</text><text x="18.036" y="1.67" class="h">)</text><text x="20.04" y="1.67" class="j">✗</text><text x="22.044" y="1.67" class="k">yarn</text><text x="27.054" y="1.67" class="k">bud</text><text x="31.062" y="1.67" class="k">build</text><text x="37.074" y="1.67" class="k">--ca</text></svg><svg x="1932"><use xlink:href="#a"/><use xlink:href="#b" x="41.996"/><text y="1.67" class="f">➜</text><text x="3.006" y="1.67" class="g">babel</text><text x="9.018" y="1.67" class="h">git:(</text><text x="14.028" y="1.67" class="i">next</text><text x="18.036" y="1.67" class="h">)</text><text x="20.04" y="1.67" class="j">✗</text><text x="22.044" y="1.67" class="k">yarn</text><text x="27.054" y="1.67" class="k">bud</text><text x="31.062" y="1.67" class="k">build</text><text x="37.074" y="1.67" class="k">--cac</text></svg><svg x="2016"><use xlink:href="#a"/><use xlink:href="#b" x="42.996"/><text y="1.67" class="f">➜</text><text x="3.006" y="1.67" class="g">babel</text><text x="9.018" y="1.67" class="h">git:(</text><text x="14.028" y="1.67" class="i">next</text><text x="18.036" y="1.67" class="h">)</text><text x="20.04" y="1.67" class="j">✗</text><text x="22.044" y="1.67" class="k">yarn</text><text x="27.054" y="1.67" class="k">bud</text><text x="31.062" y="1.67" class="k">build</text><text x="37.074" y="1.67" class="k">--cach</text></svg><svg x="2100"><use xlink:href="#a"/><use xlink:href="#b" x="43.996"/><use xlink:href="#5"/></svg><svg x="2184"><use xlink:href="#a"/><use xlink:href="#b" x="-.004" y="2.146"/><use xlink:href="#5"/></svg><svg x="2268"><use xlink:href="#a"/><use xlink:href="#b" x="-.004" y="2.146"/><use xlink:href="#5"/></svg><svg x="2352"><use xlink:href="#a"/><use xlink:href="#5"/></svg><svg x="2436"><use xlink:href="#a"/><use xlink:href="#5"/></svg><svg x="2520"><use xlink:href="#a"/><use xlink:href="#5"/><text y="6.012" class="l">▉</text><text x="1.002" y="6.012" class="ax">▉</text><text x="2.004" y="6.012" class="k">▉▉▉▉▉▉▉▉▉▉▉▉▉▉▉▉▉▉▉▉▉▉▉▉▉▉▉▉▉▉▉▉▉▉▉▉▉▉▉▉▉▉▉▉▉▉▉▉▉▉▉▉▉▉▉▉▉▉▉▉▉▉▉▉▉▉▉▉</text></svg><svg x="2604"><use xlink:href="#a"/><use xlink:href="#5"/><text y="6.012" class="l">▉</text><text x="1.002" y="6.012" class="w">▉</text><text x="2.004" y="6.012" class="H">▉</text><text x="3.006" y="6.012" class="R">▉</text><text x="4.008" y="6.012" class="ab">▉</text><text x="5.01" y="6.012" class="am">▉</text><text x="6.012" y="6.012" class="ax">▉</text><text x="7.014" y="6.012" class="k">▉▉▉▉▉▉▉▉▉▉▉▉▉▉▉▉▉▉▉▉▉▉▉▉▉▉▉▉▉▉▉▉▉▉▉▉▉▉▉▉▉▉▉▉▉▉▉▉▉▉▉▉▉▉▉▉▉▉▉▉▉▉▉</text></svg><svg x="2688"><use xlink:href="#a"/><use xlink:href="#5"/><text y="6.012" class="l">▉</text><text x="1.002" y="6.012" class="m">▉</text><text x="2.004" y="6.012" class="n">▉</text><text x="3.006" y="6.012" class="o">▉</text><text x="4.008" y="6.012" class="p">▉</text><text x="5.01" y="6.012" class="q">▉</text><text x="6.012" y="6.012" class="r">▉</text><text x="7.014" y="6.012" class="s">▉</text><text x="8.016" y="6.012" class="t">▉</text><text x="9.018" y="6.012" class="u">▉</text><text x="10.02" y="6.012" class="v">▉</text><text x="11.022" y="6.012" class="w">▉</text><text x="12.024" y="6.012" class="x">▉</text><text x="13.026" y="6.012" class="y">▉</text><text x="14.028" y="6.012" class="z">▉</text><text x="15.03" y="6.012" class="A">▉</text><text x="16.032" y="6.012" class="B">▉</text><text x="17.034" y="6.012" class="C">▉</text><text x="18.036" y="6.012" class="D">▉</text><text x="19.038" y="6.012" class="E">▉</text><text x="20.04" y="6.012" class="F">▉</text><text x="21.042" y="6.012" class="G">▉</text><text x="22.044" y="6.012" class="H">▉</text><text x="23.046" y="6.012" class="I">▉</text><text x="24.048" y="6.012" class="J">▉</text><text x="25.05" y="6.012" class="K">▉</text><text x="26.052" y="6.012" class="L">▉</text><text x="27.054" y="6.012" class="M">▉</text><text x="28.056" y="6.012" class="N">▉</text><text x="29.058" y="6.012" class="O">▉</text><text x="30.06" y="6.012" class="P">▉</text><text x="31.062" y="6.012" class="Q">▉</text><text x="32.064" y="6.012" class="R">▉▉</text><text x="34.068" y="6.012" class="S">▉</text><text x="35.07" y="6.012" class="T">▉</text><text x="36.072" y="6.012" class="U">▉</text><text x="37.074" y="6.012" class="V">▉</text><text x="38.076" y="6.012" class="W">▉</text><text x="39.078" y="6.012" class="X">▉</text></svg><svg x="2772"><use xlink:href="#a"/><use xlink:href="#5"/><use xlink:href="#6" y="4.342"/></svg><svg x="2856"><use xlink:href="#a"/><use xlink:href="#5"/><use xlink:href="#7" y="4.342"/><use xlink:href="#8" y="8.684"/><use xlink:href="#9" y="10.855"/><use xlink:href="#10" y="15.197"/><text y="21.209" class="l">▉</text><text x="1.002" y="21.209" class="m">▉</text><text x="2.004" y="21.209" class="n">▉</text><text x="3.006" y="21.209" class="o">▉</text><text x="4.008" y="21.209" class="p">▉</text><text x="5.01" y="21.209" class="q">▉</text><text x="6.012" y="21.209" class="r">▉</text><text x="7.014" y="21.209" class="s">▉</text><text x="8.016" y="21.209" class="t">▉</text><text x="9.018" y="21.209" class="u">▉</text><text x="10.02" y="21.209" class="v">▉</text><text x="11.022" y="21.209" class="w">▉</text><text x="12.024" y="21.209" class="x">▉</text><text x="13.026" y="21.209" class="y">▉</text><text x="14.028" y="21.209" class="z">▉</text><text x="15.03" y="21.209" class="A">▉</text><text x="16.032" y="21.209" class="B">▉</text><text x="17.034" y="21.209" class="C">▉</text><text x="18.036" y="21.209" class="D">▉</text><text x="19.038" y="21.209" class="E">▉</text><text x="20.04" y="21.209" class="F">▉</text><text x="21.042" y="21.209" class="G">▉</text><text x="22.044" y="21.209" class="H">▉</text><text x="23.046" y="21.209" class="I">▉</text><text x="24.048" y="21.209" class="J">▉</text><text x="25.05" y="21.209" class="K">▉</text><text x="26.052" y="21.209" class="L">▉</text><text x="27.054" y="21.209" class="M">▉</text><text x="28.056" y="21.209" class="N">▉</text><text x="29.058" y="21.209" class="O">▉</text><text x="30.06" y="21.209" class="P">▉</text></svg><svg x="2940"><use xlink:href="#a"/><use xlink:href="#5"/><use xlink:href="#7" y="4.342"/><use xlink:href="#8" y="8.684"/><use xlink:href="#9" y="10.855"/><use xlink:href="#10" y="15.197"/><use xlink:href="#6" y="19.539"/></svg><svg x="3024"><use xlink:href="#a"/><use xlink:href="#5"/><use xlink:href="#7" y="4.342"/><use xlink:href="#8" y="8.684"/><use xlink:href="#9" y="10.855"/><use xlink:href="#10" y="15.197"/></svg><svg x="3108"><use xlink:href="#a"/><use xlink:href="#b" x="-.004" y="19.514"/><use xlink:href="#5"/><use xlink:href="#7" y="4.342"/><use xlink:href="#8" y="8.684"/><use xlink:href="#9" y="10.855"/><use xlink:href="#10" y="15.197"/></svg><svg x="3192"><use xlink:href="#a"/><use xlink:href="#b" x="-.004" y="19.514"/><use xlink:href="#5"/><use xlink:href="#7" y="4.342"/><use xlink:href="#8" y="8.684"/><use xlink:href="#9" y="10.855"/><use xlink:href="#10" y="15.197"/></svg><svg x="3276"><use xlink:href="#a"/><use xlink:href="#b" x="-.004" y="19.514"/><use xlink:href="#5"/><use xlink:href="#7" y="4.342"/><use xlink:href="#8" y="8.684"/><use xlink:href="#9" y="10.855"/><use xlink:href="#10" y="15.197"/></svg><svg x="3360"><use xlink:href="#a"/><use xlink:href="#b" x="-.004" y="19.514"/><use xlink:href="#5"/><use xlink:href="#7" y="4.342"/><use xlink:href="#8" y="8.684"/><use xlink:href="#9" y="10.855"/><use xlink:href="#10" y="15.197"/></svg><svg x="3444"><use xlink:href="#a"/><use xlink:href="#b" x="-.004" y="19.514"/><use xlink:href="#5"/><use xlink:href="#7" y="4.342"/><use xlink:href="#8" y="8.684"/><use xlink:href="#9" y="10.855"/><use xlink:href="#10" y="15.197"/></svg><svg x="3528"><use xlink:href="#a"/><use xlink:href="#b" x="21.996" y="19.514"/><use xlink:href="#5"/><use xlink:href="#7" y="4.342"/><use xlink:href="#8" y="8.684"/><use xlink:href="#9" y="10.855"/><use xlink:href="#10" y="15.197"/><use xlink:href="#1" y="19.539"/></svg><svg x="3612"><use xlink:href="#a"/><use xlink:href="#b" x="21.996" y="19.514"/><use xlink:href="#5"/><use xlink:href="#7" y="4.342"/><use xlink:href="#8" y="8.684"/><use xlink:href="#9" y="10.855"/><use xlink:href="#10" y="15.197"/><use xlink:href="#1" y="19.539"/></svg><svg x="3696"><use xlink:href="#a"/><use xlink:href="#b" x="-.004" y="21.685"/><use xlink:href="#5"/><use xlink:href="#7" y="4.342"/><use xlink:href="#8" y="8.684"/><use xlink:href="#9" y="10.855"/><use xlink:href="#10" y="15.197"/><use xlink:href="#1" y="19.539"/></svg></svg></g></g></svg></svg>