
<?xml version="1.0" encoding="UTF-8"?> <svg xmlns="http://www.w3.org/2000/svg" x="0" y="0" viewBox="0 0 171 76" xml:space="preserve"><path fill="#525DDC" d="M79.9 37.6l-7.2-22-12.8-4.2L52 .5H28.8l-7.9 10.9-12.7 4.1L1 37.6l7.9 10.9v13.4l18.7 13.6 12.8-4.2 12.8 4.2L72 61.9V48.4l7.9-10.8zM40.4 51.9l-.5-.4-12.5-9.1 4.8-14.7.2-.6h16l5 15.3-11.1 8.1-1.9 1.4zm33.1-15.3L68 44.1l-8.9-2.9-5.4-16.5 5.5-7.6 8.9 2.9 5.4 16.6zM31.8 6.2h17.3l5.5 7.6-.8 1.1-4.7 6.5H31.7L27 14.8l-.7-1 5.5-7.6zM12.7 20.1l8.9-2.9 5.5 7.6-.1.2-5.3 16.2-8.9 2.9-5.5-7.6 5.4-16.4zM14.6 59v-9.4l1.1-.4 7.8-2.5 12.7 9.2 1.4 1v9.4l-8.9 2.9L14.6 59zm37.6 10.1l-8.9-2.9v-9.4l1.2-.9 12.8-9.3 6.3 2.1 2.6.8V59l-14 10.1zM118.4 51.1h-12.9l-.4-.4V24.8l.4-.4h12.2c3.8 0 7.6 1.9 7.6 6.8 0 2.7-1.1 4.9-3.8 5.7v.4c3 .8 4.6 3 4.6 6.5-.1 5.4-3.9 7.3-7.7 7.3zM116.9 29h-6.1l-.4.4v5.3l.4.4h6.1c2.3 0 3-1.5 3-3 0-1.9-.7-3.1-3-3.1zm0 10.7h-6.1l-.4.4v6.1l.4.4h6.1c2.7 0 3.8-1.1 3.8-3.4 0-2.4-1.1-3.5-3.8-3.5zM129.8 32.1h4.6l.4.4v11c0 1.9.8 3.4 3 3.4 2.7 0 3.8-1.9 3.8-4.6v-9.9l.4-.4h4.6l.4.4v18.2l-.4.4h-4.2l-.4-.4-.4-1.1h-.4s-1.1 1.9-4.6 1.9c-4.6 0-7.2-3-7.2-7.6V32.4l.4-.3zM158.7 31.7c3.4 0 4.9 1.9 4.9 1.9h.4v-8.7l.4-.4h4.6l.4.4v25.8l-.4.4h-4.2l-.4-.4-.4-1.1h-.4s-1.5 1.9-4.9 1.9c-4.6 0-8.4-3.8-8.4-9.9 0-6.1 3.8-9.9 8.4-9.9zm1.1 15.2c3 0 4.2-2.3 4.2-5.3s-1.1-5.3-4.2-5.3c-3 0-4.2 2.3-4.2 5.3.1 3 1.2 5.3 4.2 5.3z"></path></svg>
