<svg xmlns="http://www.w3.org/2000/svg" xmlns:xlink="http://www.w3.org/1999/xlink" width="720" height="472.49"><rect width="720" height="472.49" rx="5" ry="5" class="a"/><svg y="0%" x="0%"><circle cx="20" cy="20" r="6" fill="#ff5f58"/><circle cx="40" cy="20" r="6" fill="#ffbd2e"/><circle cx="60" cy="20" r="6" fill="#18c132"/></svg><svg height="412.49" viewBox="0 0 68 41.249" width="680" x="15" xmlns="http://www.w3.org/2000/svg" xmlns:xlink="http://www.w3.org/1999/xlink" y="50"><style>@keyframes as{0%{transform:translateX(0)}1.3%{transform:translateX(-68px)}1.6%{transform:translateX(-204px)}15.8%{transform:translateX(-272px)}17.3%{transform:translateX(-340px)}17.9%{transform:translateX(-408px)}19.1%{transform:translateX(-476px)}20%{transform:translateX(-544px)}21.5%{transform:translateX(-612px)}23.3%{transform:translateX(-680px)}24.4%{transform:translateX(-748px)}25%{transform:translateX(-816px)}26.2%{transform:translateX(-884px)}27.6%{transform:translateX(-952px)}28.8%{transform:translateX(-1020px)}30%{transform:translateX(-1088px)}31%{transform:translateX(-1156px)}32.6%{transform:translateX(-1360px)}55.3%{transform:translateX(-1428px)}58.2%{transform:translateX(-1564px)}58.9%{transform:translateX(-1632px)}62.4%{transform:translateX(-1700px)}63.1%{transform:translateX(-1768px)}63.5%{transform:translateX(-1904px)}68.9%{transform:translateX(-2040px)}69.1%{transform:translateX(-2176px)}69.2%{transform:translateX(-2244px)}70.4%{transform:translateX(-2448px)}70.8%{transform:translateX(-2584px)}71.2%{transform:translateX(-2720px)}to{transform:translateX(-2788px)}}.a{fill:#282d35}.f,.g{white-space:pre}.f{fill:#a8cc8c;font-weight:700}.g{fill:#66c2cd}.g,.h,.i{font-weight:700}.h{fill:#71bef2;white-space:pre}.i{fill:#e88388}.i,.j,.k,.l,.m{white-space:pre}.j{fill:#dbab79;font-weight:700}.k,.l,.m{fill:#b9c0cb}.l,.m{fill:#545dd7}.m{fill:#545cd6}.n,.o,.p,.q,.r,.s{fill:#555bd5;white-space:pre}.o,.p,.q,.r,.s{fill:#555bd4}.p,.q,.r,.s{fill:#555ad2}.q,.r,.s{fill:#5659d1}.r,.s{fill:#5658d0}.s{fill:#5658cf}.t,.u,.v,.w,.x,.y{fill:#5757ce;white-space:pre}.u,.v,.w,.x,.y{fill:#5756cd}.v,.w,.x,.y{fill:#5755cc}.w,.x,.y{fill:#5854ca}.x,.y{fill:#5854c9}.y{fill:#5853c8}.A,.B,.C,.D,.E,.z{fill:#5952c7;white-space:pre}.A,.B,.C,.D,.E{fill:#5951c6}.B,.C,.D,.E{fill:#5951c5}.C,.D,.E{fill:#5a50c3}.D,.E{fill:#5a4fc2}.E{fill:#5a4ec1}.F,.G,.H,.I,.J,.K{fill:#5b4dc0;white-space:pre}.G,.H,.I,.J,.K{fill:#5b4dbf}.H,.I,.J,.K{fill:#5b4cbe}.I,.J,.K{fill:#5c4bbd}.J,.K{fill:#5c4abb}.K{fill:#5c4aba}.L,.M,.N,.O,.P,.Q{fill:#5d49b9;white-space:pre}.M,.N,.O,.P,.Q{fill:#5d48b8}.N,.O,.P,.Q{fill:#5d47b7}.O,.P,.Q{fill:#5e46b6}.P,.Q{fill:#5e46b5}.Q{fill:#5e45b3}.R,.S,.T,.U,.V,.W{fill:#5f44b2;white-space:pre}.S,.T,.U,.V,.W{fill:#5f43b1}.T,.U,.V,.W{fill:#5f43b0}.U,.V,.W{fill:#6042af}.V,.W{fill:#6041ae}.W{fill:#6040ad}.X,.Y,.ac,.ae,.af{fill:#613fab;white-space:pre}.Y,.ac,.ae,.af{fill:#613faa}.ac,.ae,.af{fill:#623ca6}.ae,.af{fill:#633aa3}.af{fill:#6339a2}.ah,.ai,.aj,.ak{fill:#6438a0;white-space:pre}.ai,.aj,.ak{fill:#64379f}.aj,.ak{fill:#65369e}.ak{fill:#65359c}.al,.am,.an,.ap{fill:#65359b;white-space:pre}.am,.an,.ap{fill:#66349a}.an,.ap{fill:#639}.ap{fill:#46d46a}.aE,.aF,.au,.av{fill:#5953c8;white-space:pre}.aE,.aF,.av{fill:#623ea9}.aE,.aF{fill:#555bd3}.aF{fill:#5657cf}.aG,.aH,.aI,.aJ{fill:#5757cd;white-space:pre}.aH,.aI,.aJ{fill:#5756cc}.aI,.aJ{fill:#5755cb}.aJ{fill:#5853c9}.aK,.aL,.aM,.aN{fill:#5952c6;white-space:pre}.aL,.aM,.aN{fill:#5a50c4}.aM,.aN{fill:#5a4fc3}.aN{fill:#5a4ec2}.aO,.aP,.aQ,.aR{fill:#5b4ec0;white-space:pre}.aP,.aQ,.aR{fill:#5c4abc}.aQ,.aR{fill:#5e46b4}.aR{fill:#5f42b0}.aS,.aT,.aU,.aV{fill:#6042ae;white-space:pre}.aT,.aU,.aV{fill:#6041ad}.aU,.aV{fill:#6040ac}.aV{fill:#613eaa}</style><g font-family="Monaco,Consolas,Menlo,'Bitstream Vera Sans Mono','Powerline Symbols',monospace" font-size="1.67"><defs><symbol id="1"><text y="1.67" class="f">➜</text><text x="3.006" y="1.67" class="g">babel</text><text x="9.018" y="1.67" class="h">git:(</text><text x="14.028" y="1.67" class="i">next</text><text x="18.036" y="1.67" class="h">)</text><text x="20.04" y="1.67" class="j">✗</text></symbol><symbol id="2"><text y="1.67" class="f">➜</text><text x="3.006" y="1.67" class="g">babel</text><text x="9.018" y="1.67" class="h">git:(</text><text x="14.028" y="1.67" class="i">next</text><text x="18.036" y="1.67" class="h">)</text><text x="20.04" y="1.67" class="j">✗</text><text x="22.044" y="1.67" class="k">yarn</text></symbol><symbol id="3"><text y="1.67" class="f">➜</text><text x="3.006" y="1.67" class="g">babel</text><text x="9.018" y="1.67" class="h">git:(</text><text x="14.028" y="1.67" class="i">next</text><text x="18.036" y="1.67" class="h">)</text><text x="20.04" y="1.67" class="j">✗</text><text x="22.044" y="1.67" class="k">yarn</text><text x="27.054" y="1.67" class="k">bud</text></symbol><symbol id="4"><text y="1.67" class="f">➜</text><text x="3.006" y="1.67" class="g">babel</text><text x="9.018" y="1.67" class="h">git:(</text><text x="14.028" y="1.67" class="i">next</text><text x="18.036" y="1.67" class="h">)</text><text x="20.04" y="1.67" class="j">✗</text><text x="22.044" y="1.67" class="k">yarn</text><text x="27.054" y="1.67" class="k">bud</text><text x="31.062" y="1.67" class="k">build</text></symbol><symbol id="5"><text y="1.67" class="l">▉</text><text x="1.002" y="1.67" class="m">▉</text><text x="2.004" y="1.67" class="n">▉</text><text x="3.006" y="1.67" class="o">▉</text><text x="4.008" y="1.67" class="p">▉</text><text x="5.01" y="1.67" class="q">▉</text><text x="6.012" y="1.67" class="r">▉</text><text x="7.014" y="1.67" class="s">▉</text><text x="8.016" y="1.67" class="t">▉</text><text x="9.018" y="1.67" class="u">▉</text><text x="10.02" y="1.67" class="v">▉</text><text x="11.022" y="1.67" class="w">▉</text><text x="12.024" y="1.67" class="x">▉</text><text x="13.026" y="1.67" class="y">▉</text><text x="14.028" y="1.67" class="z">▉</text><text x="15.03" y="1.67" class="A">▉</text><text x="16.032" y="1.67" class="B">▉</text><text x="17.034" y="1.67" class="C">▉</text><text x="18.036" y="1.67" class="D">▉</text><text x="19.038" y="1.67" class="E">▉</text><text x="20.04" y="1.67" class="F">▉</text><text x="21.042" y="1.67" class="G">▉</text><text x="22.044" y="1.67" class="H">▉</text><text x="23.046" y="1.67" class="I">▉</text><text x="24.048" y="1.67" class="J">▉</text><text x="25.05" y="1.67" class="K">▉</text><text x="26.052" y="1.67" class="L">▉</text><text x="27.054" y="1.67" class="M">▉</text><text x="28.056" y="1.67" class="N">▉</text><text x="29.058" y="1.67" class="O">▉</text><text x="30.06" y="1.67" class="P">▉</text><text x="31.062" y="1.67" class="Q">▉</text><text x="32.064" y="1.67" class="R">▉</text><text x="33.066" y="1.67" class="S">▉</text><text x="34.068" y="1.67" class="T">▉</text><text x="35.07" y="1.67" class="U">▉</text><text x="36.072" y="1.67" class="V">▉</text><text x="37.074" y="1.67" class="W">▉</text><text x="38.076" y="1.67" class="X">▉</text><text x="39.078" y="1.67" class="Y">▉</text><text x="40.08" y="1.67" style="white-space:pre" fill="#613ea9">▉</text><text x="41.082" y="1.67" style="white-space:pre" fill="#623da8">▉</text><text x="42.084" y="1.67" style="white-space:pre" fill="#623ca7">▉</text><text x="43.086" y="1.67" class="ac">▉</text><text x="44.088" y="1.67" style="white-space:pre" fill="#633ba4">▉</text><text x="45.09" y="1.67" class="ae">▉</text><text x="46.092" y="1.67" class="af">▉</text><text x="47.094" y="1.67" style="white-space:pre" fill="#6438a1">▉</text><text x="48.096" y="1.67" class="ah">▉</text><text x="49.098" y="1.67" class="ai">▉</text><text x="50.1" y="1.67" class="aj">▉</text><text x="51.102" y="1.67" class="ak">▉</text><text x="52.104" y="1.67" class="al">▉</text><text x="53.106" y="1.67" class="am">▉</text><text x="54.108" y="1.67" class="an">▉</text><text x="55.11" y="1.67" class="k">▉▉▉</text></symbol><symbol id="6"><path fill="#545dd7" d="M0 0h5v2.171H0z"/><text y="1.67" class="k">bud</text></symbol><symbol id="7"><text x="1.002" y="1.67" class="k">-</text><text x="3.006" y="1.67" class="k">app.js</text><text x="22.044" y="1.67" class="ap">minimized</text><text x="44.088" y="1.67" class="k">699</text><text x="48.096" y="1.67" class="k">bytes</text></symbol><symbol id="8"><text x="1.002" y="1.67" class="k">-</text><text x="3.006" y="1.67" class="k">app.css</text><text x="22.044" y="1.67" class="ap">minimized</text><text x="44.088" y="1.67" class="k">248</text><text x="48.096" y="1.67" class="k">bytes</text></symbol><symbol id="9"><text y="1.67" class="k">Compiled</text><text x="9.018" y="1.67" class="k">in</text><text x="12.024" y="1.67" class="k">745ms</text></symbol><symbol id="a"><path fill="transparent" d="M0 0h68v19H0z"/></symbol><symbol id="b"><path fill="#6f7683" d="M0 0h1.102v2.171H0z"/></symbol></defs><path class="a" d="M0 0h68v41.249H0z"/><g style="animation-duration:6.942585s;animation-iteration-count:infinite;animation-name:as;animation-timing-function:steps(1,end)"><svg width="2856"><svg><use xlink:href="#a"/><use xlink:href="#b" x="-.004"/></svg><svg x="68"><use xlink:href="#a"/><use xlink:href="#b" x="-.004"/></svg><svg x="136"><use xlink:href="#a"/><use xlink:href="#b" x="21.996"/><use xlink:href="#1"/></svg><svg x="204"><use xlink:href="#a"/><use xlink:href="#b" x="21.996"/><use xlink:href="#1"/></svg><svg x="272"><use xlink:href="#a"/><use xlink:href="#b" x="22.996"/><text y="1.67" class="f">➜</text><text x="3.006" y="1.67" class="g">babel</text><text x="9.018" y="1.67" class="h">git:(</text><text x="14.028" y="1.67" class="i">next</text><text x="18.036" y="1.67" class="h">)</text><text x="20.04" y="1.67" class="j">✗</text><text x="22.044" y="1.67" class="k">y</text></svg><svg x="340"><use xlink:href="#a"/><use xlink:href="#b" x="23.996"/><text y="1.67" class="f">➜</text><text x="3.006" y="1.67" class="g">babel</text><text x="9.018" y="1.67" class="h">git:(</text><text x="14.028" y="1.67" class="i">next</text><text x="18.036" y="1.67" class="h">)</text><text x="20.04" y="1.67" class="j">✗</text><text x="22.044" y="1.67" class="k">ya</text></svg><svg x="408"><use xlink:href="#a"/><use xlink:href="#b" x="24.996"/><text y="1.67" class="f">➜</text><text x="3.006" y="1.67" class="g">babel</text><text x="9.018" y="1.67" class="h">git:(</text><text x="14.028" y="1.67" class="i">next</text><text x="18.036" y="1.67" class="h">)</text><text x="20.04" y="1.67" class="j">✗</text><text x="22.044" y="1.67" class="k">yar</text></svg><svg x="476"><use xlink:href="#a"/><use xlink:href="#b" x="25.996"/><use xlink:href="#2"/></svg><svg x="544"><use xlink:href="#a"/><use xlink:href="#b" x="26.996"/><use xlink:href="#2"/></svg><svg x="612"><use xlink:href="#a"/><use xlink:href="#b" x="27.996"/><text y="1.67" class="f">➜</text><text x="3.006" y="1.67" class="g">babel</text><text x="9.018" y="1.67" class="h">git:(</text><text x="14.028" y="1.67" class="i">next</text><text x="18.036" y="1.67" class="h">)</text><text x="20.04" y="1.67" class="j">✗</text><text x="22.044" y="1.67" class="k">yarn</text><text x="27.054" y="1.67" class="k">b</text></svg><svg x="680"><use xlink:href="#a"/><use xlink:href="#b" x="28.996"/><text y="1.67" class="f">➜</text><text x="3.006" y="1.67" class="g">babel</text><text x="9.018" y="1.67" class="h">git:(</text><text x="14.028" y="1.67" class="i">next</text><text x="18.036" y="1.67" class="h">)</text><text x="20.04" y="1.67" class="j">✗</text><text x="22.044" y="1.67" class="k">yarn</text><text x="27.054" y="1.67" class="k">bu</text></svg><svg x="748"><use xlink:href="#a"/><use xlink:href="#b" x="29.996"/><use xlink:href="#3"/></svg><svg x="816"><use xlink:href="#a"/><use xlink:href="#b" x="30.996"/><use xlink:href="#3"/></svg><svg x="884"><use xlink:href="#a"/><use xlink:href="#b" x="31.996"/><text y="1.67" class="f">➜</text><text x="3.006" y="1.67" class="g">babel</text><text x="9.018" y="1.67" class="h">git:(</text><text x="14.028" y="1.67" class="i">next</text><text x="18.036" y="1.67" class="h">)</text><text x="20.04" y="1.67" class="j">✗</text><text x="22.044" y="1.67" class="k">yarn</text><text x="27.054" y="1.67" class="k">bud</text><text x="31.062" y="1.67" class="k">b</text></svg><svg x="952"><use xlink:href="#a"/><use xlink:href="#b" x="32.996"/><text y="1.67" class="f">➜</text><text x="3.006" y="1.67" class="g">babel</text><text x="9.018" y="1.67" class="h">git:(</text><text x="14.028" y="1.67" class="i">next</text><text x="18.036" y="1.67" class="h">)</text><text x="20.04" y="1.67" class="j">✗</text><text x="22.044" y="1.67" class="k">yarn</text><text x="27.054" y="1.67" class="k">bud</text><text x="31.062" y="1.67" class="k">bu</text></svg><svg x="1020"><use xlink:href="#a"/><use xlink:href="#b" x="33.996"/><text y="1.67" class="f">➜</text><text x="3.006" y="1.67" class="g">babel</text><text x="9.018" y="1.67" class="h">git:(</text><text x="14.028" y="1.67" class="i">next</text><text x="18.036" y="1.67" class="h">)</text><text x="20.04" y="1.67" class="j">✗</text><text x="22.044" y="1.67" class="k">yarn</text><text x="27.054" y="1.67" class="k">bud</text><text x="31.062" y="1.67" class="k">bui</text></svg><svg x="1088"><use xlink:href="#a"/><use xlink:href="#b" x="34.996"/><text y="1.67" class="f">➜</text><text x="3.006" y="1.67" class="g">babel</text><text x="9.018" y="1.67" class="h">git:(</text><text x="14.028" y="1.67" class="i">next</text><text x="18.036" y="1.67" class="h">)</text><text x="20.04" y="1.67" class="j">✗</text><text x="22.044" y="1.67" class="k">yarn</text><text x="27.054" y="1.67" class="k">bud</text><text x="31.062" y="1.67" class="k">buil</text></svg><svg x="1156"><use xlink:href="#a"/><use xlink:href="#b" x="35.996"/><use xlink:href="#4"/></svg><svg x="1224"><use xlink:href="#a"/><use xlink:href="#b" x="35.996"/><use xlink:href="#4"/></svg><svg x="1292"><use xlink:href="#a"/><use xlink:href="#b" x="-.004" y="2.146"/><use xlink:href="#4"/></svg><svg x="1360"><use xlink:href="#a"/><use xlink:href="#b" x="-.004" y="2.146"/><use xlink:href="#4"/></svg><svg x="1428"><use xlink:href="#a"/><use xlink:href="#4"/></svg><svg x="1496"><use xlink:href="#a"/><use xlink:href="#4"/></svg><svg x="1564"><use xlink:href="#a"/><use xlink:href="#4"/><text y="6.012" class="l">▉</text><text x="1.002" y="6.012" class="k">▉▉▉▉▉▉▉▉▉▉▉▉▉▉▉▉▉▉▉▉▉▉▉▉▉▉▉▉▉▉▉▉▉▉▉▉▉▉▉▉▉▉▉▉▉▉▉▉▉▉▉▉▉▉▉▉▉</text></svg><svg x="1632"><use xlink:href="#a"/><use xlink:href="#4"/><text y="6.012" class="l">▉</text><text x="1.002" y="6.012" class="au">▉</text><text x="2.004" y="6.012" class="M">▉</text><text x="3.006" y="6.012" class="av">▉</text><text x="4.008" y="6.012" class="an">▉</text><text x="5.01" y="6.012" class="k">▉▉▉▉▉▉▉▉▉▉▉▉▉▉▉▉▉▉▉▉▉▉▉▉▉▉▉▉▉▉▉▉▉▉▉▉▉▉▉▉▉▉▉▉▉▉▉▉▉▉▉▉▉</text></svg><svg x="1700"><use xlink:href="#a"/><use xlink:href="#4"/><text y="6.012" class="l">▉</text><text x="1.002" y="6.012" style="white-space:pre" fill="#565ad2">▉</text><text x="2.004" y="6.012" class="u">▉</text><text x="3.006" y="6.012" class="au">▉</text><text x="4.008" y="6.012" class="D">▉</text><text x="5.01" y="6.012" style="white-space:pre" fill="#5c4cbd">▉</text><text x="6.012" y="6.012" class="M">▉</text><text x="7.014" y="6.012" style="white-space:pre" fill="#5f45b3">▉</text><text x="8.016" y="6.012" class="V">▉</text><text x="9.018" y="6.012" class="av">▉</text><text x="10.02" y="6.012" class="ae">▉</text><text x="11.022" y="6.012" style="white-space:pre" fill="#65379e">▉</text><text x="12.024" y="6.012" class="an">▉</text><text x="13.026" y="6.012" class="k">▉▉▉▉▉▉▉▉▉▉▉▉▉▉▉▉▉▉▉▉▉▉▉▉▉▉▉▉▉▉▉▉▉▉▉▉▉▉▉▉▉▉▉▉▉</text></svg><svg x="1768"><use xlink:href="#a"/><use xlink:href="#4"/><text y="6.012" class="l">▉</text><text x="1.002" y="6.012" class="o">▉</text><text x="2.004" y="6.012" class="q">▉</text><text x="3.006" y="6.012" class="t">▉</text><text x="4.008" y="6.012" style="white-space:pre" fill="#5855cb">▉</text><text x="5.01" y="6.012" class="au">▉</text><text x="6.012" y="6.012" style="white-space:pre" fill="#5950c4">▉</text><text x="7.014" y="6.012" class="E">▉</text><text x="8.016" y="6.012" class="H">▉</text><text x="9.018" y="6.012" class="J">▉</text><text x="10.02" y="6.012" class="M">▉</text><text x="11.022" y="6.012" class="P">▉</text><text x="12.024" y="6.012" class="R">▉</text><text x="13.026" y="6.012" class="U">▉</text><text x="14.028" y="6.012" style="white-space:pre" fill="#6140ac">▉</text><text x="15.03" y="6.012" class="av">▉</text><text x="16.032" y="6.012" style="white-space:pre" fill="#623ba5">▉</text><text x="17.034" y="6.012" class="af">▉</text><text x="18.036" y="6.012" class="ai">▉</text><text x="19.038" y="6.012" class="ak">▉</text><text x="20.04" y="6.012" class="an">▉</text><text x="21.042" y="6.012" class="k">▉▉▉▉▉▉▉▉▉▉▉▉▉▉▉▉▉▉▉▉▉▉▉▉▉▉▉▉▉▉▉▉▉▉▉▉▉</text></svg><svg x="1836"><use xlink:href="#a"/><use xlink:href="#4"/><text y="6.012" class="l">▉</text><text x="1.002" y="6.012" class="m">▉</text><text x="2.004" y="6.012" class="n">▉</text><text x="3.006" y="6.012" class="aE">▉</text><text x="4.008" y="6.012" class="p">▉</text><text x="5.01" y="6.012" class="q">▉</text><text x="6.012" y="6.012" class="r">▉</text><text x="7.014" y="6.012" class="aF">▉</text><text x="8.016" y="6.012" class="aG">▉</text><text x="9.018" y="6.012" class="aH">▉</text><text x="10.02" y="6.012" class="aI">▉</text><text x="11.022" y="6.012" class="w">▉</text><text x="12.024" y="6.012" class="aJ">▉</text><text x="13.026" y="6.012" class="au">▉</text><text x="14.028" y="6.012" class="aK">▉</text><text x="15.03" y="6.012" class="B">▉</text><text x="16.032" y="6.012" class="aL">▉</text><text x="17.034" y="6.012" class="aM">▉</text><text x="18.036" y="6.012" class="aN">▉</text><text x="19.038" y="6.012" class="aO">▉</text><text x="20.04" y="6.012" class="G">▉</text><text x="21.042" y="6.012" class="H">▉</text><text x="22.044" y="6.012" class="I">▉</text><text x="23.046" y="6.012" class="aP">▉</text><text x="24.048" y="6.012" class="K">▉</text><text x="25.05" y="6.012" class="L">▉</text><text x="26.052" y="6.012" class="M">▉</text><text x="27.054" y="6.012" class="N">▉</text><text x="28.056" y="6.012" class="O">▉</text><text x="29.058" y="6.012" class="aQ">▉</text><text x="30.06" y="6.012" class="Q">▉</text><text x="31.062" y="6.012" class="R">▉</text><text x="32.064" y="6.012" class="S">▉</text><text x="33.066" y="6.012" class="aR">▉</text><text x="34.068" y="6.012" class="aS">▉</text><text x="35.07" y="6.012" class="aT">▉</text><text x="36.072" y="6.012" class="aU">▉</text><text x="37.074" y="6.012" class="X">▉</text><text x="38.076" y="6.012" class="aV">▉</text><text x="39.078" y="6.012" class="av">▉</text></svg><svg x="1904"><use xlink:href="#a"/><use xlink:href="#4"/><text y="6.012" class="l">▉</text><text x="1.002" y="6.012" class="m">▉</text><text x="2.004" y="6.012" class="n">▉</text><text x="3.006" y="6.012" class="aE">▉</text><text x="4.008" y="6.012" class="p">▉</text><text x="5.01" y="6.012" class="q">▉</text><text x="6.012" y="6.012" class="r">▉</text><text x="7.014" y="6.012" class="aF">▉</text><text x="8.016" y="6.012" class="aG">▉</text><text x="9.018" y="6.012" class="aH">▉</text><text x="10.02" y="6.012" class="aI">▉</text><text x="11.022" y="6.012" class="w">▉</text><text x="12.024" y="6.012" class="aJ">▉</text><text x="13.026" y="6.012" class="au">▉</text><text x="14.028" y="6.012" class="aK">▉</text><text x="15.03" y="6.012" class="B">▉</text><text x="16.032" y="6.012" class="aL">▉</text><text x="17.034" y="6.012" class="aM">▉</text><text x="18.036" y="6.012" class="aN">▉</text><text x="19.038" y="6.012" class="aO">▉</text><text x="20.04" y="6.012" class="G">▉</text><text x="21.042" y="6.012" class="H">▉</text><text x="22.044" y="6.012" class="I">▉</text><text x="23.046" y="6.012" class="aP">▉</text><text x="24.048" y="6.012" class="K">▉</text><text x="25.05" y="6.012" class="L">▉</text><text x="26.052" y="6.012" class="M">▉</text><text x="27.054" y="6.012" class="N">▉</text><text x="28.056" y="6.012" class="O">▉</text><text x="29.058" y="6.012" class="aQ">▉</text><text x="30.06" y="6.012" class="Q">▉</text><text x="31.062" y="6.012" class="R">▉</text><text x="32.064" y="6.012" class="S">▉</text><text x="33.066" y="6.012" class="aR">▉</text><text x="34.068" y="6.012" class="aS">▉</text><text x="35.07" y="6.012" class="aT">▉</text><text x="36.072" y="6.012" class="aU">▉</text><text x="37.074" y="6.012" class="X">▉</text><text x="38.076" y="6.012" class="aV">▉</text><text x="39.078" y="6.012" class="av">▉</text><text x="40.08" y="6.012" style="white-space:pre" fill="#623da7">▉</text><text x="41.082" y="6.012" class="ac">▉</text><text x="42.084" y="6.012" style="white-space:pre" fill="#633ba5">▉</text><text x="43.086" y="6.012" style="white-space:pre" fill="#633aa4">▉</text><text x="44.088" y="6.012" style="white-space:pre" fill="#6339a3">▉</text><text x="45.09" y="6.012" style="white-space:pre" fill="#6439a1">▉</text><text x="46.092" y="6.012" class="ah">▉</text><text x="47.094" y="6.012" class="ai">▉</text><text x="48.096" y="6.012" class="aj">▉</text><text x="49.098" y="6.012" style="white-space:pre" fill="#65359d">▉</text><text x="50.1" y="6.012" class="al">▉</text><text x="51.102" y="6.012" class="am">▉</text><text x="52.104" y="6.012" class="an">▉</text><text x="53.106" y="6.012" class="k">▉▉▉▉▉</text></svg><svg x="1972"><use xlink:href="#a"/><use xlink:href="#4"/><text y="6.012" class="l">▉</text><text x="1.002" y="6.012" class="m">▉</text><text x="2.004" y="6.012" class="n">▉</text><text x="3.006" y="6.012" class="o">▉</text><text x="4.008" y="6.012" class="p">▉</text><text x="5.01" y="6.012" class="q">▉</text><text x="6.012" y="6.012" class="r">▉</text><text x="7.014" y="6.012" class="s">▉</text><text x="8.016" y="6.012" class="t">▉</text><text x="9.018" y="6.012" class="u">▉</text><text x="10.02" y="6.012" class="v">▉</text><text x="11.022" y="6.012" class="w">▉</text><text x="12.024" y="6.012" class="x">▉</text><text x="13.026" y="6.012" class="y">▉</text><text x="14.028" y="6.012" class="z">▉</text><text x="15.03" y="6.012" class="A">▉</text><text x="16.032" y="6.012" class="B">▉</text><text x="17.034" y="6.012" class="C">▉</text><text x="18.036" y="6.012" class="D">▉</text><text x="19.038" y="6.012" class="E">▉</text><text x="20.04" y="6.012" class="F">▉</text><text x="21.042" y="6.012" class="G">▉</text><text x="22.044" y="6.012" class="H">▉</text><text x="23.046" y="6.012" class="I">▉</text><text x="24.048" y="6.012" class="J">▉</text><text x="25.05" y="6.012" class="K">▉</text><text x="26.052" y="6.012" class="L">▉</text><text x="27.054" y="6.012" class="M">▉</text><text x="28.056" y="6.012" class="N">▉</text><text x="29.058" y="6.012" class="O">▉</text><text x="30.06" y="6.012" class="P">▉</text><text x="31.062" y="6.012" class="Q">▉</text><text x="32.064" y="6.012" class="R">▉</text><text x="33.066" y="6.012" class="S">▉</text><text x="34.068" y="6.012" class="T">▉</text><text x="35.07" y="6.012" class="U">▉</text><text x="36.072" y="6.012" class="V">▉</text><text x="37.074" y="6.012" class="W">▉</text><text x="38.076" y="6.012" class="X">▉</text><text x="39.078" y="6.012" class="Y">▉</text></svg><svg x="2040"><use xlink:href="#a"/><use xlink:href="#4"/><use xlink:href="#5" y="4.342"/></svg><svg x="2108"><use xlink:href="#a"/><use xlink:href="#4"/><use xlink:href="#6" y="4.342"/><use xlink:href="#7" y="8.684"/><use xlink:href="#8" y="10.855"/><use xlink:href="#9" y="15.197"/><text y="21.209" class="l">▉</text><text x="1.002" y="21.209" class="m">▉</text><text x="2.004" y="21.209" class="n">▉</text><text x="3.006" y="21.209" class="o">▉</text><text x="4.008" y="21.209" class="p">▉</text><text x="5.01" y="21.209" class="q">▉</text><text x="6.012" y="21.209" class="r">▉</text><text x="7.014" y="21.209" class="s">▉</text><text x="8.016" y="21.209" class="t">▉</text><text x="9.018" y="21.209" class="u">▉</text><text x="10.02" y="21.209" class="v">▉</text><text x="11.022" y="21.209" class="w">▉</text><text x="12.024" y="21.209" class="x">▉</text><text x="13.026" y="21.209" class="y">▉</text><text x="14.028" y="21.209" class="z">▉</text><text x="15.03" y="21.209" class="A">▉</text><text x="16.032" y="21.209" class="B">▉</text><text x="17.034" y="21.209" class="C">▉</text><text x="18.036" y="21.209" class="D">▉</text><text x="19.038" y="21.209" class="E">▉</text><text x="20.04" y="21.209" class="F">▉</text><text x="21.042" y="21.209" class="G">▉</text><text x="22.044" y="21.209" class="H">▉</text><text x="23.046" y="21.209" class="I">▉</text><text x="24.048" y="21.209" class="J">▉</text><text x="25.05" y="21.209" class="K">▉</text><text x="26.052" y="21.209" class="L">▉</text><text x="27.054" y="21.209" class="M">▉</text><text x="28.056" y="21.209" class="N">▉</text><text x="29.058" y="21.209" class="O">▉</text><text x="30.06" y="21.209" class="P">▉</text></svg><svg x="2176"><use xlink:href="#a"/><use xlink:href="#4"/><use xlink:href="#6" y="4.342"/><use xlink:href="#7" y="8.684"/><use xlink:href="#8" y="10.855"/><use xlink:href="#9" y="15.197"/><use xlink:href="#5" y="19.539"/></svg><svg x="2244"><use xlink:href="#a"/><use xlink:href="#4"/><use xlink:href="#6" y="4.342"/><use xlink:href="#7" y="8.684"/><use xlink:href="#8" y="10.855"/><use xlink:href="#9" y="15.197"/></svg><svg x="2312"><use xlink:href="#a"/><use xlink:href="#b" x="-.004" y="19.514"/><use xlink:href="#4"/><use xlink:href="#6" y="4.342"/><use xlink:href="#7" y="8.684"/><use xlink:href="#8" y="10.855"/><use xlink:href="#9" y="15.197"/></svg><svg x="2380"><use xlink:href="#a"/><use xlink:href="#b" x="-.004" y="19.514"/><use xlink:href="#4"/><use xlink:href="#6" y="4.342"/><use xlink:href="#7" y="8.684"/><use xlink:href="#8" y="10.855"/><use xlink:href="#9" y="15.197"/></svg><svg x="2448"><use xlink:href="#a"/><use xlink:href="#b" x="-.004" y="19.514"/><use xlink:href="#4"/><use xlink:href="#6" y="4.342"/><use xlink:href="#7" y="8.684"/><use xlink:href="#8" y="10.855"/><use xlink:href="#9" y="15.197"/></svg><svg x="2516"><use xlink:href="#a"/><use xlink:href="#b" x="-.004" y="19.514"/><use xlink:href="#4"/><use xlink:href="#6" y="4.342"/><use xlink:href="#7" y="8.684"/><use xlink:href="#8" y="10.855"/><use xlink:href="#9" y="15.197"/></svg><svg x="2584"><use xlink:href="#a"/><use xlink:href="#b" x="-.004" y="19.514"/><use xlink:href="#4"/><use xlink:href="#6" y="4.342"/><use xlink:href="#7" y="8.684"/><use xlink:href="#8" y="10.855"/><use xlink:href="#9" y="15.197"/></svg><svg x="2652"><use xlink:href="#a"/><use xlink:href="#b" x="21.996" y="19.514"/><use xlink:href="#4"/><use xlink:href="#6" y="4.342"/><use xlink:href="#7" y="8.684"/><use xlink:href="#8" y="10.855"/><use xlink:href="#9" y="15.197"/><use xlink:href="#1" y="19.539"/></svg><svg x="2720"><use xlink:href="#a"/><use xlink:href="#b" x="21.996" y="19.514"/><use xlink:href="#4"/><use xlink:href="#6" y="4.342"/><use xlink:href="#7" y="8.684"/><use xlink:href="#8" y="10.855"/><use xlink:href="#9" y="15.197"/><use xlink:href="#1" y="19.539"/></svg><svg x="2788"><use xlink:href="#a"/><use xlink:href="#b" x="-.004" y="21.685"/><use xlink:href="#4"/><use xlink:href="#6" y="4.342"/><use xlink:href="#7" y="8.684"/><use xlink:href="#8" y="10.855"/><use xlink:href="#9" y="15.197"/><use xlink:href="#1" y="19.539"/></svg></svg></g></g></svg></svg>